<svg xmlns="http://www.w3.org/2000/svg" version="1.1" xmlns:xlink="http://www.w3.org/1999/xlink" xmlns:svgjs="http://svgjs.com/svgjs" width="1440" height="560" preserveAspectRatio="none" viewBox="0 0 1440 560"><g mask="url(&quot;#SvgjsMask1004&quot;)" fill="none"><rect width="1440" height="560" x="0" y="0" fill="#0e2a47"></rect><path d="M1662.26 44.72C1509.3 47.35 1374.02 240.89 1082.59 240.72 791.15 240.55 667.85-66.81 502.91-77" stroke="rgba(181, 218, 255, 1)" stroke-width="2"></path><path d="M1554.72 131.62C1403.5 132.47 1189.68 266.66 964.95 266.02 740.21 265.38 771.45-4.41 670.06-28.02" stroke="rgba(181, 218, 255, 1)" stroke-width="2"></path><path d="M1493 202.6C1350.36 203.82 1158.91 351.59 941.3 348.2 723.69 344.81 778.29-14.46 665.45-67.66" stroke="rgba(181, 218, 255, 1)" stroke-width="2"></path><path d="M1627.05 312.84C1437.4 313.69 1175.52 473.27 884.81 469.64 594.1 466.01 657.55 32.44 513.69-23.13" stroke="rgba(181, 218, 255, 1)" stroke-width="2"></path><path d="M1691.91 233.18C1544.22 235.12 1421.19 410.08 1127.17 406.78 833.15 403.48 748.1-60.41 562.43-94.82" stroke="rgba(181, 218, 255, 1)" stroke-width="2"></path></g><defs><mask id="SvgjsMask1004"><rect width="1440" height="560" fill="#ffffff"></rect></mask></defs></svg>